<?xml version="1.0" encoding="UTF-8"?>
<svg width="44px" height="31px" viewBox="0 0 44 31" version="1.1" xmlns="http://www.w3.org/2000/svg" xmlns:xlink="http://www.w3.org/1999/xlink">
    <!-- Generator: Sketch 47.1 (45422) - http://www.bohemiancoding.com/sketch -->
    <title>envelope</title>
    <desc>Created with Sketch.</desc>
    <defs></defs>
    <g id="Page-1" stroke="none" stroke-width="1" fill="none" fill-rule="evenodd">
        <g id="Matt-Murray-CV" transform="translate(-338.000000, -810.000000)" fill="#FFFFFF">
            <g id="Email" transform="translate(305.000000, 782.000000)">
                <g id="envelope" transform="translate(33.000000, 28.000000)">
                    <path d="M2.49793684,28.8693458 L17.6433497,15.9909431 L21.727175,19.4634709 C21.9434445,19.6473811 22.2610182,19.6473232 22.477172,19.4634709 L26.5609972,15.9909431 L41.7064101,28.8693458 L2.49793684,28.8693458 Z M1.50243678,2.26598608 L16.7496747,15.2310472 L1.50243678,28.1961083 L1.50243678,2.26598608 Z M41.7064101,1.59274856 L22.1021735,18.2625842 L2.49793684,1.59274856 L41.7064101,1.59274856 Z M42.7019101,28.1961083 L27.4546144,15.2310472 L42.7019101,2.26598608 L42.7019101,28.1961083 Z M43.8449088,29.5777793 C43.8460666,29.5726272 43.8472244,29.567591 43.8483821,29.5623811 C43.8518554,29.5456514 43.8541709,29.528806 43.8559076,29.5119606 C43.8564864,29.507098 43.8570653,29.5022354 43.8570653,29.4973149 C43.8582231,29.483827 43.858802,29.470397 43.8593808,29.4569091 C43.8593808,29.4540147 43.8599597,29.4511782 43.8599597,29.4482259 L43.8599597,1.01386849 C43.8599597,1.0109162 43.8593808,1.00807969 43.8593808,1.0051274 C43.858802,0.991697385 43.8582231,0.978267367 43.8570653,0.96483735 C43.8570653,0.959916869 43.8564864,0.954938501 43.8559076,0.950075908 C43.8541709,0.933288386 43.8518554,0.916500864 43.8483821,0.89977123 C43.8472244,0.894387646 43.8454877,0.889235613 43.84433,0.883909916 C43.8420144,0.872737531 43.83912,0.861565146 43.8356468,0.850450648 C43.8339101,0.842809431 43.8310157,0.835341879 43.8287002,0.827816438 C43.8269636,0.823243285 43.8258058,0.818670133 43.8240692,0.814154868 C43.8223325,0.809929044 43.8205959,0.805934771 43.8188592,0.801766835 C43.8159648,0.79435717 43.8130704,0.787005393 43.810176,0.779769392 C43.805545,0.770102095 43.800914,0.760724238 43.7962829,0.751346381 C43.7933885,0.745789132 43.791073,0.740116107 43.7875997,0.734732523 C43.7800743,0.720144745 43.7713911,0.706077959 43.762129,0.692358502 C43.7598135,0.689000997 43.7574979,0.685817157 43.7551824,0.68251754 C43.747657,0.671692483 43.7395527,0.661156866 43.7314483,0.650910689 C43.7279751,0.64680064 43.7245018,0.64274848 43.7210285,0.638696319 C43.7135031,0.62937635 43.7048199,0.620345821 43.6967155,0.611604732 C43.6932423,0.6078999 43.689769,0.604252955 43.6857168,0.600663899 C43.675297,0.590533498 43.6648771,0.5808662 43.6538784,0.571546231 C43.6521418,0.569867479 43.6498263,0.568072951 43.6480896,0.566394199 C43.6353543,0.555858581 43.62204,0.54601762 43.6081469,0.536639763 C43.6035158,0.533398035 43.5988848,0.530503634 43.5936749,0.527377682 C43.5844128,0.521415217 43.5751507,0.515626417 43.5653098,0.510184944 C43.559521,0.506769552 43.5531533,0.503527823 43.5473645,0.500343983 C43.5381024,0.495539278 43.5288403,0.491081902 43.5189994,0.486798189 C43.5132106,0.484019565 43.5068429,0.481125165 43.5010541,0.478578092 C43.4860032,0.472499852 43.4709523,0.466942603 43.4559014,0.46208001 C43.4506915,0.460459146 43.4454816,0.459243498 43.4402717,0.45773841 C43.4286941,0.454438793 43.4171165,0.451428617 43.4055389,0.448823657 C43.3991712,0.447434345 43.3928035,0.446218696 43.3864358,0.445060936 C43.3748582,0.44291908 43.3632806,0.44118244 43.3511241,0.43973524 C43.3453353,0.439040584 43.3395465,0.438230152 43.3337577,0.437709159 C43.3163913,0.436088295 43.2984461,0.434988423 43.2810796,0.434988423 L0.923556714,0.434988423 C0.90566932,0.434988423 0.888013478,0.436088295 0.870473412,0.437709159 C0.864568835,0.438230152 0.858780034,0.439040584 0.852933346,0.43973524 C0.841297856,0.44118244 0.829720255,0.44291908 0.81825843,0.445003048 C0.811774973,0.446218696 0.805233628,0.447434345 0.798808059,0.448823657 C0.787230458,0.451370729 0.775826521,0.454438793 0.764480471,0.457680522 C0.759154775,0.45918561 0.75377119,0.460401258 0.748503381,0.46208001 C0.733278836,0.466942603 0.71834373,0.472441964 0.703640176,0.478520204 C0.697214607,0.481125165 0.691020591,0.484135341 0.684710798,0.486971853 C0.675506605,0.491197678 0.6663603,0.495539278 0.657387659,0.500170319 C0.651019978,0.503469935 0.644768073,0.50682744 0.638574056,0.510358608 C0.629196199,0.515626417 0.620107782,0.521241553 0.611077253,0.527030354 C0.606040996,0.530272082 0.600946852,0.533398035 0.596026371,0.536755539 C0.582480578,0.546075508 0.569282112,0.555858581 0.556546751,0.566278423 C0.554115454,0.568246615 0.55191571,0.570446359 0.549542302,0.572472439 C0.538948797,0.581387192 0.528702619,0.590707162 0.518745882,0.600432347 C0.514867386,0.604195067 0.511162553,0.608131452 0.507399833,0.612009948 C0.499179736,0.620519485 0.491191191,0.629318462 0.483492086,0.638348991 C0.479845142,0.642632704 0.476198197,0.646858528 0.472724917,0.651200129 C0.464736372,0.661098978 0.457153043,0.671287267 0.449859154,0.681764996 C0.447312082,0.685411941 0.444533457,0.688885221 0.442102161,0.692590054 C0.433013744,0.706135847 0.424504207,0.720144745 0.41657355,0.734558859 C0.413447598,0.740231883 0.410726861,0.74613646 0.407774573,0.751867373 C0.403143532,0.761013678 0.398628268,0.770217871 0.394460331,0.779595728 C0.391218603,0.786947505 0.388208427,0.79435717 0.385256138,0.801882611 C0.383635274,0.805992659 0.38172497,0.809929044 0.380219882,0.814154868 C0.37854113,0.818670133 0.377325481,0.823243285 0.375762505,0.827816438 C0.373215433,0.835283991 0.370668361,0.842751543 0.368468616,0.85039276 C0.365111112,0.861680922 0.362332488,0.873026971 0.359727527,0.88437302 C0.358569767,0.889467165 0.357064679,0.894503422 0.356022695,0.899655454 C0.35266519,0.916500864 0.350176006,0.933346274 0.34832359,0.95030746 C0.347802598,0.954938501 0.347571046,0.959627429 0.34716583,0.964316358 C0.345950182,0.978093703 0.345255526,0.991813161 0.345081862,1.00553262 C0.345023974,1.00836913 0.344676646,1.01108987 0.344676646,1.01386849 L0.344676646,29.4482259 C0.344676646,29.4510045 0.345023974,29.4537253 0.345081862,29.4565618 C0.345255526,29.4702812 0.345950182,29.4840586 0.34716583,29.497778 C0.347571046,29.502467 0.347802598,29.5071559 0.34832359,29.5117869 C0.350176006,29.5287481 0.35266519,29.5456514 0.356022695,29.5624968 C0.357064679,29.5675331 0.358453991,29.5723378 0.359611751,29.5772583 C0.3622746,29.5888359 0.365111112,29.6003556 0.368468616,29.6118753 C0.370668361,29.6193429 0.373157545,29.6266367 0.375646729,29.6339306 C0.377267593,29.6386196 0.378483242,29.6433664 0.380219882,29.6479974 C0.381782858,29.6522811 0.38375105,29.6563333 0.385429802,29.660617 C0.388266315,29.667853 0.391160715,29.675089 0.394344555,29.6822092 C0.398686156,29.6920502 0.403375085,29.7015438 0.408237677,29.7110375 C0.410958413,29.7164789 0.413505486,29.7219783 0.416457774,29.727304 C0.424446319,29.7418918 0.433071632,29.7560743 0.442217937,29.7697938 C0.444475569,29.7730934 0.446906866,29.7761615 0.449164498,29.7794032 C0.456747827,29.7902861 0.464678484,29.8009375 0.472956469,29.8111837 C0.476256085,29.8152938 0.479671478,29.819288 0.48308687,29.8232823 C0.491075415,29.8326602 0.499295512,29.8417486 0.507862937,29.8505476 C0.511394105,29.8541945 0.514867386,29.8578993 0.51851433,29.8614305 C0.528760507,29.871503 0.539411901,29.8811703 0.550410622,29.8904324 C0.552436702,29.892169 0.554347006,29.8940214 0.556373087,29.8957002 C0.569224224,29.9062358 0.582538466,29.9160768 0.596200035,29.9254546 C0.600888964,29.9286964 0.605751556,29.9316487 0.610556261,29.9347167 C0.619818342,29.9406792 0.629196199,29.946468 0.638805608,29.9518516 C0.644883849,29.9553248 0.65096209,29.9585666 0.657156107,29.9618083 C0.666302412,29.9665551 0.675622381,29.9710125 0.685058126,29.9752383 C0.691194255,29.9780169 0.697272495,29.9809692 0.7035244,29.9835163 C0.718285842,29.9895945 0.733220948,29.9951518 0.748503381,30.0000144 C0.753713302,30.0016931 0.759096887,30.0029088 0.764422583,30.0044139 C0.775768633,30.0076556 0.787230458,30.0107237 0.798808059,30.0132707 C0.805233628,30.0146601 0.811717085,30.0158757 0.818200542,30.0170335 C0.829720255,30.0191753 0.841297856,30.020912 0.852991234,30.0223592 C0.858837922,30.0230538 0.864568835,30.0238642 0.870415524,30.0243852 C0.888013478,30.0260061 0.90566932,30.027106 0.923556714,30.027106 L43.2810796,30.027106 C43.2984461,30.027106 43.3163913,30.0260061 43.3337577,30.0243852 C43.3395465,30.0238642 43.3453353,30.0230538 43.3511241,30.0223592 C43.3632806,30.020912 43.3748582,30.0191753 43.3864358,30.0170335 C43.3928035,30.0158757 43.3991712,30.0146601 43.4055389,30.0132707 C43.4171165,30.0106658 43.4286941,30.0075977 43.4402717,30.0042981 C43.4454816,30.0028509 43.4506915,30.0016353 43.4559014,30.0000723 C43.4709523,29.9951518 43.4860032,29.9895945 43.5010541,29.9834584 C43.5068429,29.9809692 43.5126317,29.9781906 43.5189994,29.9754699 C43.5282614,29.9710704 43.5381024,29.9665551 43.5473645,29.9616346 C43.5537322,29.9585666 43.559521,29.9553827 43.5653098,29.9520252 C43.5751507,29.946468 43.5849917,29.9405055 43.5942538,29.9343694 C43.5988848,29.9314171 43.6035158,29.9286385 43.6081469,29.9256283 C43.62204,29.9161347 43.6353543,29.9061779 43.6480896,29.8955265 C43.6498263,29.8941951 43.6515629,29.89269 43.6527207,29.8913007 C43.6642983,29.8816913 43.675297,29.8716767 43.6862957,29.8611989 C43.689769,29.8578414 43.6926634,29.8543682 43.6961367,29.8509528 C43.7048199,29.8419222 43.7135031,29.8326023 43.7216074,29.822935 C43.7250807,29.8191144 43.7279751,29.8153516 43.7314483,29.8114731 C43.7395527,29.8008796 43.747657,29.7899388 43.7557613,29.7787085 C43.7574979,29.7757562 43.7598135,29.7729197 43.762129,29.7699674 C43.7713911,29.7561322 43.7800743,29.7418918 43.7881786,29.7271882 C43.7904941,29.7220941 43.7933885,29.7167684 43.795704,29.7116163 C43.800914,29.7018912 43.805545,29.6921081 43.810176,29.6820356 C43.8130704,29.6750311 43.8159648,29.667853 43.8188592,29.6606749 C43.8205959,29.6564491 43.8223325,29.652339 43.8240692,29.6479974 C43.8258058,29.6433664 43.8269636,29.6386196 43.8287002,29.6339885 C43.8310157,29.6266367 43.8339101,29.619285 43.8356468,29.6118174 C43.83912,29.6005293 43.8420144,29.5891253 43.8449088,29.5777793 L43.8449088,29.5777793 Z"></path>
                </g>
            </g>
        </g>
    </g>
</svg>